<svg xmlns="http://www.w3.org/2000/svg" fill="none" viewBox="0 0 50 51"><path fill="#425D00" d="M31.4 16.412c9.78-4.085 11.623 8.027 3.189 11.411-.75.354-.116 1.296-.204 1.923-.062 4.38 1.077 7.143-4.689 6.377-4.196.104-8.388.27-12.585.012-2.619-.331-1.961-5.65-2.184-7.685 0-.592-.07-.654-.658-.72-1.142-.372-2.311-.942-3.15-1.845-4.657-4.274 1.22-11.681 6.673-9.616 1.05.77.62-3.619 2.823-4.773 4.354-3.43 10.285-.45 10.785 4.915Zm-5.788 10.357c-.016-1.004-1.743-1.396-1.816.004 0 2.246-.765 5.162.427 7.1 2.47-.5.677-5.123 1.389-7.108v.004Zm-4.085 6.37-.096-.058c-.327-1.427-.858-2.831-1.246-4.254-.312-.804-1.362-.373-1.462.288-.196 1.293 1.362 7.374 2.808 4.02l-.004.004Zm9.054-3.135c.034-1.05-1.192-1.612-1.731-.596-.096 1.63-1.5 3.438-.7 5 2.073.13 1.873-3.004 2.43-4.404ZM17.077 37.227c4.192.016 8.396-.046 12.58.085 1.478.111 4.885-1.285 4.816 1.165-.558 2.639-14.211 1.308-17.077 1.496-2.104.396-2.55-3.054-.319-2.742v-.004Z"/></svg>