<svg xmlns="http://www.w3.org/2000/svg" fill="none" viewBox="0 0 51 51"><path fill="#425D00" d="M38.115 25.227c-.373-.223-.823-.4-1.254-.431-1.784-.135-3.576-.288-5.365-.285-2.035.004-4.07.173-6.104.262-1.496.065-2.996.134-4.492.165-.435.008-.873-.154-1.308-.154-.82.004-1.638.085-2.457.112-1.012.03-2.024.015-3.035.07a7.31 7.31 0 0 0-1.577.26 1.963 1.963 0 0 0-1.442 2.15c.188 1.44.269 2.916.677 4.297.765 2.577 2.15 4.765 4.427 6.37 1.207.853 2.503 1.31 3.888 1.657.1.027.212.211.23.334.047.308.016.623.058.931.131.939.573 1.327 1.516 1.37.123.003.246.05.373.076h2.327c.554-.069 1.107-.15 1.665-.2 1.27-.115 2.55-.146 3.808-.334 1.13-.17 1.558-.92 1.323-2.05-.066-.32-.015-.485.327-.593 1.67-.526 3.07-1.461 4.265-2.746 1.573-1.688 2.358-3.773 3.023-5.907.304-.977.397-2.023.585-3.039v-.13c-.016-1.043-.646-1.697-1.462-2.181l.004-.004Zm-16.93 12.092c-.643.05-1.285-.073-1.889-.28-.065-.024-.135-.047-.2-.07-.523-.188-1.042-.408-1.512-.708-.65-.415-1.188-.969-1.688-1.546a2.145 2.145 0 0 1-.089-.104c-.85-.988-1.261-2.127-1.596-3.257-.25-.839-.373-1.704-.434-2.554-.039-.539.13-1.066.227-1.593.042-.23.123-.511.473-.446.192.035.419.25.519.423.165.281.27.593.342.896.308 1.25.481 2.504 1.177 3.724.289.5.7.915.992 1.392.254.42.643.692 1.058.985.866.615 1.885.888 2.858 1.273.642.254.93.623.892 1.069-.042.45-.477.75-1.123.796h-.008ZM24.765 20.446c.016-1.727-.861-3.554-1.6-5.408-.746-1.865-.6-5.28 1.596-6.646.293-.184.585-.4.908-.5 1.127-.338 1.47-.023 1.273 1.142-.227 1.335-.754 2.685-.638 3.985.111 1.23.954 2.377 1.35 3.6.35 1.085.623 2.215.761 3.346.162 1.304-1.18 2.689-2.457 2.7-.95.008-1.3-.53-1.193-2.223M18.746 20.838c.489-1.211-.3-2.142-.97-3.069-1.103-1.53-1.142-3.17-.588-4.865.327-1 .989-1.743 2.058-2.02.808-.211 1.25.185 1.165 1.02-.015.15-.05.3-.104.438-.676 1.723-.453 3.096 1.081 4.408 1.381 1.18 1.493 4.004.593 5.234-.585.8-1.397.95-2.266.881-.719-.057-1.027-.75-.973-2.023M29.454 15.323c.184-1.554.838-2.735 2.038-3.635.585-.438 1.192-.546 1.796-.096.558.415.616.996.412 1.623-.123.38-.189.796-.389 1.13-.669 1.1-.419 2.17-.123 3.324.216.846.227 1.796.089 2.662-.081.511-.531 1.076-.977 1.388-.612.427-1.066.05-1.204-.715-.139-.766-.392-1.512-.612-2.262-.334-1.142-.688-2.28-1.03-3.42Z"/></svg>