<svg xmlns="http://www.w3.org/2000/svg" fill="none" viewBox="0 0 52 52"><path fill="#576C1D" d="M41.395 16.698c-.697-1.567-2.35-1.567-3.838-1.567-4.113-.012-8.224.192-12.316.61h-.086c-2.272.158-4.548.271-6.816.479a29.347 29.347 0 0 0-3.972.548c-1.336.314-2.178 1.285-2.617 2.55-.497 1.446-.587 3.087-.783 4.595-.07.552-.133 1.109-.196 1.665-.145.293-.18.628-.098.944-.09.897-.164 1.798-.227 2.695-.11 1.657-.352 3.47-.145 5.12.184 1.488 1.265 2.197 2.668 2.35 3.435.392 6.96.062 10.396-.145l10.674-.654c1.496-.09 3.326.058 4.7-.631 1.219-.607 1.79-1.833 2.006-3.134.496-3.388.778-6.804.846-10.227.04-.974.064-1.951.075-2.93a5.34 5.34 0 0 0-.27-2.268Zm-3.043.822c.595 0 .877-.043.916.596.047.736 0 1.492-.031 2.229a112.752 112.752 0 0 1-.141 3.482 654.54 654.54 0 0 1-5.116.286c.49-.355.888-.824 1.156-1.367.623-1.305.156-3.005-1.262-3.526-1.418-.52-3.07.325-4.246 1.175a11.218 11.218 0 0 0-1.99 1.81c.07-1.422.145-2.84.216-4.262h.121a1.21 1.21 0 0 0 .243-.047c2.047-.159 4.099-.265 6.154-.317a49.965 49.965 0 0 1 3.98-.059Zm-7.024 5.269c-.423.143-.855.26-1.292.348a8.36 8.36 0 0 1 1.602-1.202c.203-.118 1.332-.803 1.379-.357.062.608-1.285 1.07-1.689 1.21Zm-11.332-1.234c.317.146.618.322.901.525.411.254.81.533 1.199.826-.6-.168-1.434-.391-1.877-.822.012-.004-.387-.459-.223-.53Zm-4.845-2.503a26.246 26.246 0 0 1 3.662-.474c2.206-.184 4.419-.294 6.628-.454l-.235 4.28a19.543 19.543 0 0 0-1.567-1.335c-1.105-.85-2.593-2.068-4.093-1.84-1.352.207-2.1 1.464-1.959 2.765.141 1.3 1.081 2.158 2.28 2.722-2.217.078-4.437.144-6.66.196.13-1.077.275-2.154.447-3.224.173-1.07.263-2.35 1.497-2.636Zm1.958 15.37h-1.958c-.659 0-1.595.118-2.147-.117-.552-.235-.333-.556-.333-1.148 0-.783.047-1.566.086-2.35.06-1.16.14-2.315.24-3.466 2.968-.074 5.935-.164 8.899-.27a7.31 7.31 0 0 1-2.397 1.605 3.474 3.474 0 0 0-.537.16c-1.402.573-.909 2.68.639 2.32.228-.053.453-.12.673-.2.139-.032.27-.087.392-.16 1.723-.784 2.899-2.26 4.309-3.502l-.349 6.847c-2.503.137-5.006.254-7.501.282h-.016Zm21.587-5.483c-.11 1.112-.054 2.57-.544 3.611-.533 1.14-2.507.843-3.525.905-2.496.153-4.99.34-7.494.513a1.025 1.025 0 0 0-.094-.258c.091-1.716.179-3.429.262-5.14a8.14 8.14 0 0 0 5.485 2.578c1.566.094 1.539-2.311 0-2.405a5.482 5.482 0 0 1-3.863-1.959c3.335-.151 6.669-.326 10-.525a79.653 79.653 0 0 1-.21 2.672l-.017.008Z"/></svg>