<svg xmlns="http://www.w3.org/2000/svg" fill="none" viewBox="0 0 50 50"><path fill="#ED6167" d="M39.23 12.85c-1.034-.809-2.304-.92-3.508-1.009-2.248-.165-4.504-.16-7.156-.236-1.788.092-3.973.147-6.147.336-.994.087-1.974.405-2.947.686-.534.155-.878.62-.892 1.228a46.3 46.3 0 0 0 .032 3.523c.132 2.432.347 4.864.44 7.29.075 2.007.307 4.139.478 6.14.152 2.424.276 4.848.428 7.269.032.515.153 1.023.218 1.535.198 1.499.408 2.995.574 4.496.118 1.078.912 1.712 1.637 2.259.66.499 1.557.788 2.39.936 1.512.265 3.029.654 4.596.389.357-.06.73-.092 1.088-.056 1.53.153 3.008-.113 4.475-.512 1.68-.458 2.645-1.402 2.908-3.21.176-1.212.218-2.446.35-3.668.289-2.684.47-4.995.757-7.68.023-.213.044-.45.063-.704h.005c.066-.952.129-1.904.195-2.855v-.008c.073-1.08.144-2.161.223-3.242.045-.61.166-1.212.224-1.822.094-1.01.155-2.024.25-3.037.178-1.887.328-3.78.572-5.66.156-1.199-.528-1.82-1.254-2.387ZM27.76 27.604c.053.875-.507 1.296-1.025 1.77-.121.112-.392.138-.568.099-.868-.192-1.725-.436-2.595-.626-.308-.068-.447-.189-.476-.507a278.7 278.7 0 0 0-.447-4.443c-.042-.39.1-.647.45-.789.589-.237 1.186-.463 1.835-.718 1.149.326 2.274.629 3.386.978.171.053.297.313.405.5.066.113.042.276.087.407.29.839.184 1.517-.676 1.985-.526.292-.4.92-.376 1.344Zm.644 3.034c.08-1.012.121-2.03.216-3.042.021-.234.147-.494.305-.67a23.615 23.615 0 0 1 1.64-1.686c.258-.236.626-.352.918-.51.29.1.51.158.712.25.81.368 1.633.71 2.411 1.138.442.242.82.616 1.191.965.098.092.11.329.09.49a132.06 132.06 0 0 1-.558 3.796.914.914 0 0 1-.35.539c-.499.354-1.02.678-1.553.978a.746.746 0 0 1-.563.042c-1.317-.505-2.62-1.044-3.935-1.557-.35-.14-.555-.323-.524-.733Zm9.126-16.45c-5.39 1.306-10.65 1.325-16.064.047 1.215-.863 14.37-.857 16.064-.047Zm1.42 1.695c-.113.776-.26 1.638-.36 2.508-.116.997-.219 1.996-.321 2.995-2.256-.954-5.5-1.422-9.88-1.422-3.308 0-5.942.207-7.87.617-.078-.996-.157-1.99-.238-2.986-.053-.663-.106-1.323-.16-2.03 6.296 2.28 12.545 1.917 18.829.318ZM16.398 3.055c.105-.06.242-.103.487.05.12.076.218.158.289.244l.118.145c.245.292.494.594.715.912.56.805.95 1.68 1.362 2.658.25.594.468 1.189.72 1.901.022.06.032.124.032.184a.53.53 0 0 1-.24.431c-.015.01-.03.021-.046.03-.269.154-.516.115-.713-.109a3.186 3.186 0 0 1-.155-.197c-.042-.055-.068-.092-.097-.126-.839-1.054-1.467-2.219-2.02-3.32-.38-.76-.536-1.623-.652-2.375-.018-.205.053-.341.2-.428ZM15.91 15.53l-.014.013c-.158.15-.352.147-.586.132a228.63 228.63 0 0 1-3.773-.3c-.384-.034-.736-.184-1.08-.466-.027-.02-.053-.044-.077-.065-.215-.205-.289-.431-.228-.707.068-.319.252-.513.594-.629.66-.226 1.246-.265 1.79-.123.147.039.295.076.444.113.46.115.94.236 1.386.394.381.132.747.305 1.041.442.103.05.192.09.274.126l.026.018c.539.552.357.897.202 1.052ZM14.048 8.531l-.042.06.042-.06.095.069c.27.197.544.4.807.596.389.292.791.592 1.204.881.539.376 1.052.755 1.42 1.26.155.213.202.323.092.468a.375.375 0 0 1-.26.147.784.784 0 0 1-.264-.021 2.658 2.658 0 0 1-.38-.113l-.248-.098c-.392-.152-.797-.31-1.183-.476-.24-.102-.476-.204-.734-.312-.738-.316-1.503-.64-2.226-1.005-1.047-.53-1.951-1.285-2.827-2.016l-.136-.113a1.726 1.726 0 0 1-.319-.402 3.617 3.617 0 0 1-.07-.11l-.011-.017-.003-.018c-.044-.484.192-.786.668-.85.287-.036.5.07.75.193.28.142.565.281.849.42.646.318 1.312.65 1.966.989.287.147.552.342.81.528Z"/></svg>